<svg xmlns="http://www.w3.org/2000/svg" xmlns:xlink="http://www.w3.org/1999/xlink" width="500" zoomAndPan="magnify" viewBox="0 0 375 374.999991" height="500" preserveAspectRatio="xMidYMid meet" version="1.0"><defs><clipPath id="6d3e7f0bf9"><path d="M 84 66 L 211 66 L 211 179.972656 L 84 179.972656 Z M 84 66 " clip-rule="nonzero"/></clipPath><clipPath id="a61a70ce96"><path d="M 89 76 L 216 76 L 216 189.1875 L 89 189.1875 Z M 89 76 " clip-rule="nonzero"/></clipPath><clipPath id="3f5bdf0392"><path d="M 89 75.1875 L 216 75.1875 L 216 189.1875 L 89 189.1875 Z M 89 75.1875 " clip-rule="nonzero"/></clipPath><clipPath id="83357a9ea5"><path d="M 87 72 L 214 72 L 214 185.242188 L 87 185.242188 Z M 87 72 " clip-rule="nonzero"/></clipPath><clipPath id="5ddea4f105"><path d="M 87 71.242188 L 214 71.242188 L 214 185.242188 L 87 185.242188 Z M 87 71.242188 " clip-rule="nonzero"/></clipPath><clipPath id="215a624fd0"><path d="M 217 82.171875 L 323 82.171875 L 323 192 L 217 192 Z M 217 82.171875 " clip-rule="nonzero"/></clipPath><clipPath id="bcbe4c7919"><path d="M 217 92.375 L 323 92.375 L 323 202 L 217 202 Z M 217 92.375 " clip-rule="nonzero"/></clipPath><clipPath id="3259dfbabc"><path d="M 81.261719 197 L 183.261719 197 L 183.261719 291 L 81.261719 291 Z M 81.261719 197 " clip-rule="nonzero"/></clipPath><clipPath id="82b2cadc45"><path d="M 88 200.117188 L 189.527344 200.117188 L 189.527344 295 L 88 295 Z M 88 200.117188 " clip-rule="nonzero"/></clipPath><clipPath id="be4314f618"><path d="M 84 197 L 185.910156 197 L 185.910156 292 L 84 292 Z M 84 197 " clip-rule="nonzero"/></clipPath><clipPath id="8137799594"><path d="M 246.335938 118.535156 L 295.085938 118.535156 L 295.085938 167.285156 L 246.335938 167.285156 Z M 246.335938 118.535156 " clip-rule="nonzero"/></clipPath><clipPath id="c4ab227ec9"><path d="M 247.835938 118.535156 L 293.585938 118.535156 C 293.984375 118.535156 294.363281 118.695312 294.644531 118.976562 C 294.929688 119.257812 295.085938 119.640625 295.085938 120.035156 L 295.085938 165.785156 C 295.085938 166.183594 294.929688 166.566406 294.644531 166.847656 C 294.363281 167.128906 293.984375 167.285156 293.585938 167.285156 L 247.835938 167.285156 C 247.4375 167.285156 247.058594 167.128906 246.773438 166.847656 C 246.492188 166.566406 246.335938 166.183594 246.335938 165.785156 L 246.335938 120.035156 C 246.335938 119.640625 246.492188 119.257812 246.773438 118.976562 C 247.058594 118.695312 247.4375 118.535156 247.835938 118.535156 " clip-rule="nonzero"/></clipPath><clipPath id="80d4aaf838"><path d="M 103.472656 210.121094 L 166.472656 210.121094 L 166.472656 264.871094 L 103.472656 264.871094 Z M 103.472656 210.121094 " clip-rule="nonzero"/></clipPath><clipPath id="9a3285234e"><path d="M 134.972656 210.121094 L 166.472656 264.871094 L 103.472656 264.871094 L 134.972656 210.121094 " clip-rule="nonzero"/></clipPath><clipPath id="19dc749988"><path d="M 218.304688 223.660156 L 271.554688 223.660156 L 271.554688 276.910156 L 218.304688 276.910156 Z M 218.304688 223.660156 " clip-rule="nonzero"/></clipPath><clipPath id="2d87c0e896"><path d="M 244.929688 223.660156 C 230.222656 223.660156 218.304688 235.582031 218.304688 250.285156 C 218.304688 264.992188 230.222656 276.910156 244.929688 276.910156 C 259.632812 276.910156 271.554688 264.992188 271.554688 250.285156 C 271.554688 235.582031 259.632812 223.660156 244.929688 223.660156 " clip-rule="nonzero"/></clipPath></defs><rect x="-37.5" width="450" fill="#ffffff" y="-37.499999" height="449.999989" fill-opacity="1"/><rect x="-37.5" width="450" fill="#ffffff" y="-37.499999" height="449.999989" fill-opacity="1"/><rect x="-37.5" width="450" fill="#292f33" y="-37.499999" height="449.999989" fill-opacity="1"/><g clip-path="url(#6d3e7f0bf9)"><path stroke-linecap="butt" transform="matrix(0.171074, 0, 0, 0.170659, 80.252188, 54.349458)" fill-opacity="1" fill="#00ffff" fill-rule="nonzero" stroke-linejoin="miter" d="M 333.450141 75.34087 C 266.387649 82.482317 201.745527 110.864994 151.123278 155.384595 C 79.745223 218.192711 38.324944 310.825526 27.182112 405.243703 C 21.565029 452.922021 23.231887 501.927916 37.069092 547.91243 C 50.883463 593.874054 77.393355 636.72274 115.548419 665.837872 C 148.565907 691.038942 188.867336 705.138723 229.625439 713.149962 C 270.360708 721.161201 311.98649 723.427238 353.338268 727.272633 C 392.589348 730.934913 431.817595 736.016328 471.228511 735.512764 C 510.662261 735.009201 550.71252 728.623099 585.739371 710.563476 C 636.452954 684.423947 672.233317 636.333622 699.862059 586.435046 C 726.714456 537.955604 747.789934 485.768102 756.763567 431.062783 C 765.737199 376.380352 762.19798 318.974101 741.510674 267.541945 C 714.36144 200.041531 656.318248 144.76398 562.974201 113.565926 C 469.652988 82.367871 400.489799 68.222312 333.450141 75.34087 Z M 333.450141 75.34087 " stroke="#000000" stroke-width="0.299" stroke-opacity="1" stroke-miterlimit="4"/></g><g clip-path="url(#a61a70ce96)"><path fill="#fc128d" d="M 142.351562 76.425781 C 130.878906 77.640625 119.820312 82.484375 111.160156 90.085938 C 98.949219 100.800781 91.863281 116.609375 89.957031 132.722656 C 88.996094 140.859375 89.28125 149.226562 91.648438 157.070312 C 94.011719 164.917969 98.546875 172.226562 105.074219 177.199219 C 110.722656 181.5 117.617188 183.90625 124.589844 185.273438 C 131.558594 186.636719 138.679688 187.027344 145.753906 187.683594 C 152.46875 188.304688 159.179688 189.175781 165.921875 189.085938 C 172.664062 189 179.519531 187.914062 185.511719 184.832031 C 194.1875 180.371094 200.304688 172.164062 205.035156 163.648438 C 209.628906 155.371094 213.234375 146.464844 214.769531 137.132812 C 216.304688 127.796875 215.699219 118 212.160156 109.226562 C 207.515625 97.703125 197.582031 88.273438 181.617188 82.949219 C 165.652344 77.621094 153.820312 75.207031 142.351562 76.425781 Z M 142.351562 76.425781 " fill-opacity="1" fill-rule="nonzero"/></g><g clip-path="url(#3f5bdf0392)"><path stroke-linecap="butt" transform="matrix(0.171074, 0, 0, 0.170659, 85.306376, 63.565909)" fill="none" stroke-linejoin="miter" d="M 333.453058 75.354344 C 266.390566 82.472902 201.748444 110.855578 151.126195 155.398069 C 79.74814 218.183295 38.327861 310.81611 27.185029 405.234288 C 21.567946 452.912606 23.234804 501.94139 37.072009 547.903014 C 50.88638 593.887528 77.396272 636.713324 115.551336 665.851346 C 148.568824 691.052415 188.870253 705.152197 229.628356 713.163436 C 270.363625 721.151786 311.989407 723.440711 353.341185 727.286106 C 392.592266 730.925498 431.820512 736.029802 471.231428 735.503349 C 510.642344 734.999785 550.715437 728.636572 585.742288 710.57695 C 636.455871 684.437421 672.2134 636.347096 699.864976 586.44852 C 726.717373 537.946188 747.792851 485.758687 756.766484 431.076256 C 765.740116 376.370937 762.200897 318.964685 741.513591 267.555418 C 714.364357 200.032116 656.298331 144.777454 562.977118 113.5794 C 469.655905 82.358456 400.492716 68.212896 333.453058 75.354344 Z M 333.453058 75.354344 " stroke="#000000" stroke-width="0.299" stroke-opacity="1" stroke-miterlimit="4"/></g><g clip-path="url(#83357a9ea5)"><path fill="#ffffff" d="M 140.292969 72.480469 C 128.824219 73.695312 117.765625 78.539062 109.105469 86.140625 C 96.890625 96.855469 89.808594 112.664062 87.902344 128.777344 C 86.9375 136.914062 87.226562 145.28125 89.589844 153.125 C 91.957031 160.972656 96.492188 168.28125 103.019531 173.253906 C 108.667969 177.550781 115.5625 179.960938 122.53125 181.328125 C 129.503906 182.691406 136.625 183.078125 143.695312 183.734375 C 150.410156 184.359375 157.125 185.226562 163.867188 185.140625 C 170.609375 185.054688 177.460938 183.964844 183.457031 180.882812 C 192.132812 176.425781 198.25 168.21875 202.980469 159.703125 C 207.574219 151.425781 211.179688 142.519531 212.714844 133.1875 C 214.25 123.851562 213.644531 114.054688 210.105469 105.28125 C 205.457031 93.757812 195.527344 84.328125 179.5625 79 C 163.597656 73.675781 151.765625 71.261719 140.292969 72.480469 Z M 140.292969 72.480469 " fill-opacity="1" fill-rule="nonzero"/></g><g clip-path="url(#5ddea4f105)"><path stroke-linecap="butt" transform="matrix(0.171074, 0, 0, 0.170659, 83.251177, 59.620059)" fill="none" stroke-linejoin="miter" d="M 333.433214 75.357489 C 266.393556 82.476048 201.751434 110.858724 151.129185 155.401214 C 79.728296 218.186441 38.330851 310.819256 27.18802 405.237433 C 21.548103 452.915752 23.237794 501.944536 37.052165 547.90616 C 50.88937 593.890673 77.399262 636.71647 115.554326 665.854491 C 148.571814 691.032672 188.873244 705.155342 229.608513 713.166582 C 270.366615 721.154932 311.992397 723.420968 353.321342 727.266363 C 392.572422 730.928644 431.823503 736.010058 471.234419 735.506495 C 510.645335 735.002931 550.695594 728.616829 585.745278 710.557206 C 636.458862 684.440566 672.21639 636.350242 699.867966 586.451666 C 726.720363 537.949334 747.795841 485.761833 756.769474 431.079402 C 765.743107 376.374083 762.203888 318.967831 741.516582 267.558564 C 714.344513 200.035262 656.301322 144.7806 562.980109 113.559656 C 469.658895 82.361601 400.495706 68.216042 333.433214 75.357489 Z M 333.433214 75.357489 " stroke="#000000" stroke-width="0.299" stroke-opacity="1" stroke-miterlimit="4"/></g><g clip-path="url(#215a624fd0)"><path fill="#00ffff" d="M 305.160156 87.9375 C 313.402344 93.3125 318.402344 103.613281 320.738281 113.71875 C 323.074219 123.757812 322.75 133.605469 321.191406 143.125 C 319.699219 152.710938 317.039062 161.976562 311.652344 170.007812 C 306.265625 178.039062 298.28125 184.84375 288.808594 188.40625 C 279.265625 192.03125 268.363281 192.421875 259.015625 188.988281 C 249.738281 185.488281 242.011719 178.171875 234.941406 170.136719 C 227.867188 162.171875 221.375 153.554688 218.84375 143.644531 C 216.25 133.734375 217.546875 122.527344 222.089844 112.875 C 226.632812 103.222656 234.421875 95.125 243.636719 90.203125 C 252.785156 85.28125 263.429688 83.53125 274.464844 82.882812 C 285.496094 82.171875 296.917969 82.625 305.160156 87.9375 Z M 305.160156 87.9375 " fill-opacity="1" fill-rule="nonzero"/></g><g clip-path="url(#bcbe4c7919)"><path fill="#fc128d" d="M 305.160156 98.140625 C 313.402344 103.515625 318.402344 113.816406 320.738281 123.921875 C 323.074219 133.960938 322.75 143.808594 321.191406 153.328125 C 319.699219 162.917969 317.039062 172.179688 311.652344 180.210938 C 306.265625 188.246094 298.28125 195.046875 288.808594 198.609375 C 279.265625 202.234375 268.363281 202.625 259.015625 199.191406 C 249.738281 195.695312 242.011719 188.375 234.941406 180.339844 C 227.867188 172.375 221.375 163.757812 218.84375 153.847656 C 216.25 143.9375 217.546875 132.730469 222.089844 123.078125 C 226.632812 113.425781 234.421875 105.332031 243.636719 100.40625 C 252.785156 95.484375 263.429688 93.734375 274.464844 93.085938 C 285.496094 92.375 296.917969 92.828125 305.160156 98.140625 Z M 305.160156 98.140625 " fill-opacity="1" fill-rule="nonzero"/></g><path fill="#ffffff" d="M 305.160156 93.621094 C 313.402344 98.996094 318.402344 109.296875 320.738281 119.402344 C 323.074219 129.441406 322.75 139.289062 321.191406 148.808594 C 319.699219 158.398438 317.039062 167.660156 311.652344 175.691406 C 306.265625 183.726562 298.28125 190.527344 288.808594 194.089844 C 279.265625 197.71875 268.363281 198.105469 259.015625 194.671875 C 249.738281 191.175781 242.011719 183.855469 234.941406 175.824219 C 227.867188 167.855469 221.375 159.238281 218.84375 149.328125 C 216.25 139.417969 217.546875 128.210938 222.089844 118.558594 C 226.632812 108.90625 234.421875 100.8125 243.636719 95.886719 C 252.785156 90.964844 263.429688 89.214844 274.464844 88.566406 C 285.496094 87.855469 296.917969 88.308594 305.160156 93.621094 Z M 305.160156 93.621094 " fill-opacity="1" fill-rule="nonzero"/><path fill="#fc128d" d="M 275.703125 210.554688 C 283.820312 216.316406 288.324219 227.148438 292.191406 238.292969 C 295.996094 249.503906 299.105469 261.03125 296.757812 271.542969 C 294.347656 282.054688 286.421875 291.554688 276.78125 295.480469 C 267.078125 299.472656 255.664062 297.953125 244.695312 297.253906 C 233.722656 296.621094 223.257812 296.75 216.347656 291.871094 C 209.433594 286.996094 206.074219 277.117188 203.472656 267.363281 C 200.808594 257.609375 198.84375 247.984375 201.0625 239.371094 C 203.347656 230.695312 209.753906 222.96875 217.679688 217.203125 C 225.542969 211.378906 234.863281 207.515625 245.390625 205.867188 C 255.917969 204.222656 267.585938 204.855469 275.703125 210.554688 Z M 275.703125 210.554688 " fill-opacity="1" fill-rule="nonzero"/><path fill="#00ffff" d="M 266.539062 204.566406 C 274.65625 210.328125 279.15625 221.160156 283.027344 232.304688 C 286.832031 243.515625 289.9375 255.042969 287.59375 265.554688 C 285.183594 276.066406 277.253906 285.566406 267.617188 289.492188 C 257.914062 293.484375 246.5 291.964844 235.527344 291.265625 C 224.558594 290.632812 214.09375 290.761719 207.179688 285.882812 C 200.269531 281.007812 196.90625 271.128906 194.308594 261.375 C 191.644531 251.621094 189.679688 241.996094 191.898438 233.382812 C 194.179688 224.707031 200.585938 216.980469 208.511719 211.214844 C 216.375 205.390625 225.699219 201.527344 236.226562 199.878906 C 246.753906 198.234375 258.421875 198.867188 266.539062 204.566406 Z M 266.539062 204.566406 " fill-opacity="1" fill-rule="nonzero"/><path fill="#ffffff" d="M 271.582031 208.066406 C 279.699219 213.828125 284.203125 224.65625 288.070312 235.804688 C 291.875 247.011719 294.984375 258.539062 292.636719 269.054688 C 290.226562 279.566406 282.300781 289.066406 272.660156 292.992188 C 262.957031 296.980469 251.542969 295.460938 240.574219 294.765625 C 229.601562 294.132812 219.140625 294.257812 212.226562 289.382812 C 205.3125 284.503906 201.953125 274.625 199.351562 264.871094 C 196.691406 255.121094 194.722656 245.492188 196.941406 236.878906 C 199.226562 228.203125 205.632812 220.476562 213.558594 214.714844 C 221.421875 208.886719 230.742188 205.023438 241.269531 203.378906 C 251.796875 201.730469 263.464844 202.363281 271.582031 208.066406 Z M 271.582031 208.066406 " fill-opacity="1" fill-rule="nonzero"/><g clip-path="url(#3259dfbabc)"><path fill="#00ffff" d="M 99.175781 277.65625 C 91.953125 272.8125 85.472656 266.195312 83 257.859375 C 81.296875 252.113281 81.621094 245.917969 83 240.085938 C 85.070312 231.363281 89.484375 223.238281 95.492188 216.582031 C 101.503906 209.929688 109.082031 204.738281 117.367188 201.300781 C 124.640625 198.28125 132.566406 196.59375 140.414062 197.261719 C 143.128906 197.488281 145.816406 198 148.5 198.472656 C 151.558594 199.011719 154.632812 199.507812 157.609375 200.390625 C 160.585938 201.277344 163.484375 202.5625 165.886719 204.53125 C 168.765625 206.894531 170.804688 210.132812 172.363281 213.511719 C 173.921875 216.894531 175.039062 220.457031 176.398438 223.925781 C 177.84375 227.621094 179.566406 231.210938 180.933594 234.9375 C 182.296875 238.664062 183.3125 242.578125 183.269531 246.550781 C 183.226562 250.964844 181.867188 255.289062 179.902344 259.246094 C 177.933594 263.199219 175.367188 266.820312 172.757812 270.386719 C 170.074219 274.050781 167.324219 277.691406 164.105469 280.898438 C 160.886719 284.105469 157.167969 286.882812 152.949219 288.566406 C 146.089844 291.296875 138.398438 290.964844 131.113281 289.777344 C 119.789062 287.929688 108.703125 284.050781 99.175781 277.65625 Z M 99.175781 277.65625 " fill-opacity="1" fill-rule="nonzero"/></g><g clip-path="url(#82b2cadc45)"><path fill="#fc128d" d="M 105.441406 281.425781 C 98.21875 276.578125 91.738281 269.964844 89.269531 261.628906 C 87.566406 255.882812 87.886719 249.683594 89.269531 243.851562 C 91.335938 235.128906 95.75 227.007812 101.757812 220.351562 C 107.769531 213.695312 115.347656 208.503906 123.632812 205.066406 C 130.90625 202.050781 138.832031 200.363281 146.679688 201.027344 C 149.398438 201.257812 152.082031 201.765625 154.765625 202.238281 C 157.824219 202.78125 160.898438 203.277344 163.875 204.160156 C 166.855469 205.042969 169.75 206.332031 172.152344 208.300781 C 175.03125 210.660156 177.074219 213.898438 178.628906 217.28125 C 180.1875 220.664062 181.304688 224.226562 182.664062 227.691406 C 184.113281 231.390625 185.832031 234.976562 187.199219 238.707031 C 188.566406 242.433594 189.578125 246.347656 189.539062 250.316406 C 189.492188 254.730469 188.132812 259.058594 186.167969 263.011719 C 184.199219 266.96875 181.632812 270.589844 179.023438 274.152344 C 176.34375 277.820312 173.589844 281.457031 170.371094 284.664062 C 167.152344 287.871094 163.4375 290.652344 159.214844 292.332031 C 152.359375 295.066406 144.664062 294.734375 137.382812 293.546875 C 126.054688 291.695312 114.96875 287.820312 105.441406 281.425781 Z M 105.441406 281.425781 " fill-opacity="1" fill-rule="nonzero"/></g><g clip-path="url(#be4314f618)"><path fill="#ffffff" d="M 101.820312 278.214844 C 94.601562 273.367188 88.121094 266.753906 85.648438 258.417969 C 83.945312 252.671875 84.265625 246.472656 85.648438 240.640625 C 87.714844 231.917969 92.132812 223.796875 98.140625 217.140625 C 104.152344 210.488281 111.730469 205.292969 120.015625 201.859375 C 127.289062 198.839844 135.214844 197.152344 143.0625 197.816406 C 145.777344 198.046875 148.464844 198.554688 151.148438 199.03125 C 154.207031 199.570312 157.28125 200.066406 160.257812 200.949219 C 163.234375 201.832031 166.132812 203.121094 168.535156 205.089844 C 171.414062 207.453125 173.453125 210.691406 175.011719 214.070312 C 176.570312 217.453125 177.6875 221.015625 179.046875 224.480469 C 180.492188 228.179688 182.214844 231.765625 183.582031 235.496094 C 184.945312 239.222656 185.960938 243.136719 185.917969 247.105469 C 185.871094 251.523438 184.515625 255.847656 182.546875 259.800781 C 180.582031 263.757812 178.015625 267.378906 175.40625 270.941406 C 172.722656 274.609375 169.972656 278.246094 166.753906 281.453125 C 163.535156 284.660156 159.816406 287.441406 155.59375 289.125 C 148.738281 291.855469 141.046875 291.523438 133.761719 290.335938 C 122.4375 288.488281 111.347656 284.609375 101.820312 278.214844 Z M 101.820312 278.214844 " fill-opacity="1" fill-rule="nonzero"/></g><g clip-path="url(#8137799594)"><g clip-path="url(#c4ab227ec9)"><path stroke-linecap="butt" transform="matrix(0.750361, 0, 0, 0.750361, 246.335847, 118.53635)" fill="none" stroke-linejoin="miter" d="M 1.99916 -0.00159066 L 62.969835 -0.00159066 C 63.50083 -0.00159066 64.005795 0.211848 64.380615 0.586668 C 64.760641 0.961488 64.968874 1.471659 64.968874 1.997448 L 64.968874 62.968124 C 64.968874 63.499118 64.760641 64.009289 64.380615 64.384109 C 64.005795 64.758929 63.50083 64.967162 62.969835 64.967162 L 1.99916 64.967162 C 1.468165 64.967162 0.963199 64.758929 0.583174 64.384109 C 0.208354 64.009289 0.000120977 63.499118 0.000120977 62.968124 L 0.000120977 1.997448 C 0.000120977 1.471659 0.208354 0.961488 0.583174 0.586668 C 0.963199 0.211848 1.468165 -0.00159066 1.99916 -0.00159066 " stroke="#292f33" stroke-width="6" stroke-opacity="1" stroke-miterlimit="4"/></g></g><g clip-path="url(#80d4aaf838)"><g clip-path="url(#9a3285234e)"><path stroke-linecap="butt" transform="matrix(0.751118, 0, 0, 0.746008, 103.471447, 210.120469)" fill="none" stroke-linejoin="miter" d="M 41.939111 0.000837991 L 83.876613 73.391476 L 0.00160953 73.391476 L 41.939111 0.000837991 " stroke="#292f33" stroke-width="6" stroke-opacity="1" stroke-miterlimit="4"/></g></g><g clip-path="url(#19dc749988)"><g clip-path="url(#2d87c0e896)"><path stroke-linecap="butt" transform="matrix(0.75265, 0, 0, 0.75265, 218.302901, 223.660752)" fill="none" stroke-linejoin="miter" d="M 35.377377 -0.000791155 C 15.837047 -0.000791155 0.00237419 15.839072 0.00237419 35.374211 C 0.00237419 54.91454 15.837047 70.749214 35.377377 70.749214 C 54.912516 70.749214 70.752379 54.91454 70.752379 35.374211 C 70.752379 15.839072 54.912516 -0.000791155 35.377377 -0.000791155 " stroke="#292f33" stroke-width="6" stroke-opacity="1" stroke-miterlimit="4"/></g></g><path stroke-linecap="round" transform="matrix(1.662535, -1.43135, 1.426606, 1.657024, 119.982873, 149.190357)" fill="none" stroke-linejoin="miter" d="M 1.500663 1.499651 L 31.393384 1.500723 " stroke="#000000" stroke-width="3" stroke-opacity="1" stroke-miterlimit="4"/><path stroke-linecap="round" transform="matrix(1.575326, 1.554876, -1.53598, 1.556181, 130.924287, 105.396922)" fill="none" stroke-linejoin="miter" d="M 1.500024 1.499329 L 25.174362 1.500518 " stroke="#000000" stroke-width="3" stroke-opacity="1" stroke-miterlimit="4"/><path stroke-linecap="round" transform="matrix(-0.599724, -2.127295, 2.104502, -0.593299, 63.304176, 140.15838)" fill="none" stroke-linejoin="miter" d="M 3 3.000856 L 31.638286 3.000518 " stroke="#ffffff" stroke-width="6" stroke-opacity="1" stroke-miterlimit="4"/><path stroke-linecap="round" transform="matrix(-2.063994, 0.635916, -0.643806, -2.089604, 116.494055, 55.759376)" fill="none" stroke-linejoin="miter" d="M 2.999822 2.999885 L 31.428109 2.999825 " stroke="#ffffff" stroke-width="6" stroke-opacity="1" stroke-miterlimit="4"/><path stroke-linecap="round" transform="matrix(0.248317, 2.145413, -2.172034, 0.251398, 323.573978, 244.680248)" fill="none" stroke-linejoin="miter" d="M 3.000288 2.999177 L 31.42935 2.999557 " stroke="#ffffff" stroke-width="6" stroke-opacity="1" stroke-miterlimit="4"/><path stroke-linecap="round" transform="matrix(2.145413, -0.248317, 0.251398, 2.172034, 254.452488, 315.324414)" fill="none" stroke-linejoin="miter" d="M 3.000837 2.99926 L 31.428102 2.999435 " stroke="#ffffff" stroke-width="6" stroke-opacity="1" stroke-miterlimit="4"/></svg>